# AST/ASF file generated using VICON BodyLanguage
# -----------------------------------------------
:version 1.10
:name VICON
:units
  mass 1.0
  length 0.45
  angle deg
:documentation
   .ast/.asf automatically generated from VICON data using
   VICON BodyBuilder and BodyLanguage model FoxedUp or BRILLIANT.MOD
:root
   order TX TY TZ RX RY RZ
   axis XYZ
   position 0 0 0  
   orientation 0 0 0 
:bonedata
  begin
     id 1 
     name lhipjoint
     direction 0.650112 -0.723553 0.232005 
     length 2.45805 
     axis 0 0 0  XYZ
  end
  begin
     id 2 
     name lfemur
     direction 0.34202 -0.939693 0  
     length 7.00073  
     axis 0 0 20  XYZ
    dof rx ry rz
    limits (-160.0 20.0)
           (-70.0 70.0)
           (-60.0 70.0)
  end
  begin
     id 3 
     name ltibia
     direction 0.34202 -0.939693 0   
     length 7.8748   
     axis 0 0 20   XYZ
    dof rx
    limits (-10.0 170.0)
  end
  begin
     id 4 
     name lfoot
     direction 0.0542825 -0.14914 0.987325   
     length 1.75978   
     axis -90 7.62852e-016 20   XYZ
    dof rx rz
    limits (-45.0 90.0)
           (-70.0 20.0)
  end
  begin
     id 5 
     name ltoes
     direction 1.53509e-011 -4.21906e-011 1   
     length 0.893912   
     axis -90 7.62852e-016 20   XYZ
    dof rx
    limits (-90.0 20.0)
  end
  begin
     id 6 
     name rhipjoint
     direction -0.637897 -0.733345 0.235145   
     length 2.42522  
     axis 0 0 0  XYZ 
  end
  begin
     id 7 
     name rfemur
     direction -0.34202 -0.939693 0   
     length 7.02549   
     axis 0 0 -20   XYZ
    dof rx ry rz
    limits (-160.0 20.0)
           (-70.0 70.0)
           (-70.0 60.0)
  end
  begin
     id 8 
     name rtibia
     direction -0.34202 -0.939693 0   
     length 7.71512   
     axis 0 0 -20   XYZ
    dof rx
    limits (-10.0 170.0)
 end
 begin
     id 9 
     name rfoot
     direction -0.0822618 -0.226012 0.970645   
     length 1.90014  
     axis -90 -7.62852e-016 -20   XYZ
    dof rx rz
    limits (-45.0 90.0)
           (-20.0 70.0)
  end
  begin
     id 10 
     name rtoes
     direction -1.53542e-011 -4.21872e-011 1   
     length 0.957341   
     axis -90 -7.62852e-016 -20   XYZ
    dof rx
    limits (-90.0 20.0)
  end
  begin
     id 11 
     name lowerback
     direction -0.0022947 0.999774 -0.0211557   
     length 1.89909   
     axis 0 0 0   XYZ
    dof rx ry rz
    limits (-20.0 45.0)
           (-30.0 30.0)
           (-30.0 30.0)
  end
  begin
     id 12 
     name upperback
     direction 0.0107737 0.998635 0.0511027   
     length 1.8853   
     axis 0 0 0   XYZ
    dof rx ry rz
    limits (-20.0 45.0)
           (-30.0 30.0)
           (-30.0 30.0)
  end
  begin
     id 13 
     name thorax
     direction 0.011824 0.998136 0.0598754   
     length 1.88911   
     axis 0 0 0   XYZ
    dof rx ry rz
    limits (-20.0 45.0)
           (-30.0 30.0)
           (-30.0 30.0)
  end
  begin
     id 14 
     name lowerneck
     direction -0.0685355 0.990319 0.120714   
     length 1.91222   
     axis 0 0 0   XYZ
    dof rx ry rz
    limits (-20.0 45.0)
           (-30.0 30.0)
           (-30.0 30.0)
  end
  begin
     id 15 
     name upperneck
     direction 0.0886204 0.955665 -0.280805   
     length 1.92526   
     axis 0 0 0   XYZ
    dof rx ry rz
    limits (-20.0 45.0)
           (-30.0 30.0)
           (-30.0 30.0)
  end
  begin
     id 16
     name head
     direction 0.0233423 0.993502 -0.111393  
     length 1.96056  
     axis 0 0 0   XYZ
    dof rx ry rz
    limits (-20.0 45.0)
           (-30.0 30.0)
           (-30.0 30.0)
  end
  begin
     id 17 
     name lclavicle
     direction 0.941873 0.32922 0.0670041  
     length 3.31705  
     axis 0 0 0   XYZ
    dof ry rz
    limits (-20.0 10.0)
           (0.0 20.0)
  end
  begin
     id 18 
     name lhumerus
     direction 1 -4.4898e-011 3.38707e-028   
     length 5.29277   
     axis 180 -30 -90   XYZ
    dof rx ry rz
    limits (-60.0 90.0)
           (-90.0 90.0)
           (-90.0 90.0)
  end
  begin
     id 19
     name lradius
     direction 1 -4.48952e-011 1.63213e-028   
     length 2.85226   
     axis 180 -30 -90   XYZ
    dof rx
    limits (-10.0 170.0)
  end
  begin
     id 20
     name lwrist
     direction 1 -4.49001e-011 1.27856e-027   
     length 1.42613   
     axis -1.61767e-015 90 90   XYZ
    dof ry
    limits (-180.0 0.0)
 end
  begin
     id 21 
     name lhand
     direction 1 -4.48976e-011 2.55931e-027   
     length 0.602097   
     axis -1.63363e-015 90 90   XYZ
    dof rx rz
    limits (-90.0 90.0)
           (-45.0 45.0)
  end
  begin
     id 22 
     name lfingers
     direction 1 -4.48986e-011 5.11684e-027   
     length 0.485426   
     axis -3.26723e-015 90 90   XYZ
    dof rx
    limits (0.0 90.0)
  end
  begin
     id 23
     name lthumb
     direction 0.707107 -6.34915e-011 0.707107   
     length 0.696978   
     axis -90 45 -2.25915e-014   XYZ
    dof rx rz
    limits (-45.0 45.0)
           (-45.0 45.0)
  end
  begin
     id 24 
     name rclavicle
     direction -0.939974 0.327078 0.0973096   
     length 3.10337  
     axis 0 0 0   XYZ 
    dof ry rz
    limits (-10.0 20.0)
           (-20.0 0.0)
  end
  begin
     id 25 
     name rhumerus
     direction -1 -4.48975e-011 1.83745e-027  
     length 5.13304   
     axis 180 30 90   XYZ
    dof rx ry rz
    limits (-90.0 60.0)
           (-90.0 90.0)
           (-90.0 90.0)
  end
  begin
     id 26 
     name rradius
     direction -1 -4.48977e-011 7.1775e-029   
     length 2.74305   
     axis 180 30 90   XYZ
    dof rx
    limits (-10.0 170.0)
  end
  begin
     id 27 
     name rwrist
     direction -1 -4.48977e-011 1.27963e-027   
     length 1.37152   
     axis -1.61767e-015 -90 -90   XYZ
    dof ry
    limits (-180.0 0.0)
  end
  begin
     id 28
     name rhand
     direction -1 -4.4888e-011 2.56782e-027   
     length 0.767976   
     axis -1.63363e-015 -90 -90   XYZ
    dof rx rz
    limits (-90.0 90.0)
           (-45.0 45.0)
  end
  begin
     id 29
     name rfingers
     direction -1 -4.48947e-011 5.12384e-027   
     length 0.619162   
     axis -3.26723e-015 -90 -90   XYZ
    dof rx
    limits (0.0 90.0)
  end
  begin
     id 30
     name rthumb
     direction -0.707107 -6.34857e-011 0.707107   
     length 0.888997   
     axis -90 -45 2.25915e-014   XYZ
    dof rx rz
    limits (-45.0 45.0)
           (-45.0 45.0)
  end
:hierarchy
  begin
    root lhipjoint rhipjoint lowerback
    lhipjoint lfemur
    lfemur ltibia
    ltibia lfoot
    lfoot ltoes
    rhipjoint rfemur
    rfemur rtibia
    rtibia rfoot
    rfoot rtoes
    lowerback upperback
    upperback thorax
    thorax lowerneck lclavicle rclavicle
    lowerneck upperneck
    upperneck head
    lclavicle lhumerus
    lhumerus lradius
    lradius lwrist
    lwrist lhand lthumb
    lhand lfingers
    rclavicle rhumerus
    rhumerus rradius
    rradius rwrist
    rwrist rhand rthumb
    rhand rfingers
  end

#!OML:ASF F:\VICON\USERDATA\INSTALL\rory3\rory3.ASF
:FULLY-SPECIFIED
:DEGREES
783
root -0.803349 17.0074 -1.47213 4.36448 -2.90754 -9.65045
lowerback 5.87653 -0.53726 -3.29821
upperback 1.01348 -1.07526 -5.91369
thorax -2.30723 -0.531827 -4.19111
lowerneck -6.36198 -14.2174 -14.3467
upperneck 21.0967 -24.892 25.1512
head 13.6348 -10.7692 7.84918
rclavicle -2.0276e-014 -9.85972e-014
rhumerus 42.3462 -11.2912 -15.3311
rradius 74.1534
rwrist -39.1451
rhand 17.2618 12.5613
rfingers 7.12502
rthumb 41.9762 -12.0367
lclavicle -2.0276e-014 -9.85972e-014
lhumerus -43.3608 53.1415 34.7897
lradius 15.3851
lwrist -5.74992
lhand 0.417169 20.9258
lfingers 7.12502
lthumb 25.9899 49.1686
rfemur -13.6494 5.63579 32.3768
rtibia 23.2343
rfoot -13.0523 -5.97808
rtoes -5.45774
lfemur -20.6274 -7.76583 -3.09944
ltibia 37.2743
lfoot -20.5545 6.25204
ltoes -25.1726
784
root -0.868063 16.9678 -1.47006 3.98174 -2.15394 -9.91067
lowerback 6.00283 -0.175998 -3.51123
upperback 1.04935 -0.620569 -6.17096
thorax -2.31913 -0.303959 -4.37828
lowerneck -5.95823 -14.4016 -14.5567
upperneck 20.6482 -25.176 25.5525
head 13.5542 -10.9427 7.9792
rclavicle -1.82882e-014 9.54166e-015
rhumerus 43.0096 -9.31985 -14.6482
rradius 73.7813
rwrist -38.6235
rhand 17.4206 13.4096
rfingers 7.12502
rthumb 42.1251 -11.1384
lclavicle -1.82882e-014 9.54166e-015
lhumerus -41.1305 51.0032 37.5508
lradius 16.1563
lwrist -2.37074
lhand 0.219042 21.7507
lfingers 7.12502
lthumb 25.8002 50.0212
rfemur -13.814 4.81509 32.9859
rtibia 24.2493
rfoot -13.54 -6.02518
rtoes -6.50095
lfemur -20.9949 -7.86389 -2.52984
ltibia 38.1768
lfoot -20.7267 5.65598
ltoes -25.8371
785
root -0.933182 16.9258 -1.4643 3.6385 -1.50755 -10.239
lowerback 5.99983 0.228292 -3.72708
upperback 1.11516 -0.095563 -6.37468
thorax -2.2225 -0.0410603 -4.51307
lowerneck -5.70314 -14.6119 -14.8019
upperneck 20.2972 -25.4736 25.8442
head 13.5354 -11.1138 8.0591
rclavicle -1.70955e-014 2.22639e-014
rhumerus 43.7117 -7.41197 -13.9627
rradius 73.5108
rwrist -38.1039
rhand 17.6795 13.6887
rfingers 7.12502
rthumb 42.3675 -10.777
lclavicle -1.70955e-014 2.22639e-014
lhumerus -38.9903 48.7579 40.3052
lradius 17.032
lwrist 1.32767
lhand -0.0492081 22.6005
lfingers 7.12502
lthumb 25.5432 50.908
rfemur -14.0131 4.17931 33.6354
rtibia 25.2994
rfoot -14.1157 -6.07699
rtoes -5.96424
lfemur -21.3847 -7.8154 -1.91266
ltibia 39.1325
lfoot -20.9629 5.38366
ltoes -27.7717
786
root -0.996937 16.88 -1.45843 3.26653 -0.831925 -10.6063
lowerback 5.9668 0.593859 -3.9402
upperback 1.26339 0.389166 -6.51808
thorax -2.0256 0.201745 -4.58011
lowerneck -5.75484 -14.8166 -15.0335
upperneck 20.1413 -25.7533 26.0095
head 13.6328 -11.2454 8.07682
rclavicle 5.56597e-015 -9.54166e-014
rhumerus 44.5887 -5.57431 -13.3024
rradius 73.3272
rwrist -37.5678
rhand 17.7339 13.3883
rfingers 7.12502
rthumb 42.4185 -11.06
lclavicle 5.56597e-015 -9.54166e-014
lhumerus -37.5745 47.5086 42.0691
lradius 17.8625
lwrist 3.93443
lhand 0.180632 23.4914
lfingers 7.12502
lthumb 25.7634 51.7672
rfemur -14.2193 3.42447 34.3188
rtibia 26.3393
rfoot -14.6865 -6.04245
rtoes -5.13715
lfemur -21.7974 -7.82469 -1.24192
ltibia 40.1365
lfoot -21.3879 4.84599
ltoes -28.1782
787
root -1.06037 16.827 -1.45582 2.91211 -0.155832 -10.9927
lowerback 5.94304 0.991954 -4.14506
upperback 1.42918 0.919349 -6.64979
thorax -1.81412 0.466924 -4.6412
lowerneck -5.77948 -15.0311 -15.3102
upperneck 19.7783 -26.0059 26.2505
head 13.6542 -11.3753 8.12603
rclavicle -2.62396e-014 3.49861e-014
rhumerus 45.3058 -3.79982 -12.5256
rradius 73.054
rwrist -37.1428
rhand 17.8612 13.3122
rfingers 7.12502
rthumb 42.5377 -11.0951
lclavicle -2.62396e-014 3.49861e-014
lhumerus -36.546 47.0081 43.2019
lradius 18.5329
lwrist 5.45628
lhand 0.704377 23.9919
lfingers 7.12502
lthumb 26.2649 52.1939
rfemur -14.4704 2.69847 35.0186
rtibia 27.3635
rfoot -15.2542 -6.04625
rtoes -4.93166
lfemur -22.2857 -7.82537 -0.538916
ltibia 41.1806
lfoot -21.884 4.10883
ltoes -28.1905
788
root -1.12245 16.7753 -1.45216 2.51843 0.502383 -11.5159
lowerback 5.99764 1.41449 -4.15397
upperback 1.58332 1.48701 -6.77146
thorax -1.6528 0.750375 -4.80599
lowerneck -5.53918 -15.2488 -15.6603
upperneck 19.176 -26.2556 26.6345
head 13.5634 -11.5381 8.25048
rclavicle -1.11319e-014 1.11319e-013
rhumerus 45.9635 -2.02871 -11.8136
rradius 72.6759
rwrist -36.8858
rhand 18.3962 13.1788
rfingers 7.12502
rthumb 43.0382 -11.0536
lclavicle -1.11319e-014 1.11319e-013
lhumerus -35.6421 46.6605 44.106
lradius 18.9692
lwrist 6.54809
lhand 1.07369 23.5943
lfingers 7.12502
lthumb 26.6184 51.7432
rfemur -14.6807 1.95537 35.8442
rtibia 28.367
rfoot -15.8733 -5.98076
rtoes -4.13977
lfemur -22.7339 -7.76854 0.303583
ltibia 42.2029
lfoot -22.3032 3.48381
ltoes -29.056
